#!OML:ASF E:\Mandelcareful walks\Project 1\Capture day 1\Session 1\Subject1.ASF
:FULLY-SPECIFIED
:DEGREES
719
root 18.0799 14.1578 0.535923 11.9761 128.783 -6.33745
lowerback 40.1966 2.71831 -2.99413
upperback 9.52172 3.95291 -3.27188
thorax -8.66403 2.75949 -3.67952
lowerneck -34.135 -8.11982 -7.68662
upperneck 26.1369 -6.32865 -2.23766
head 14.9106 -3.76045 -1.09506
rclavicle -6.36111e-015 7.63333e-014
rhumerus -0.257992 62.339 -100.573
rradius 43.1297
rwrist -64.2699
rhand -23.2465 -51.5676
rfingers 7.12502
rthumb 3.20509 -81.5233
lclavicle -6.36111e-015 7.63333e-014
lhumerus -30.4144 -35.7066 86.8621
lradius 70.2969
lwrist 77.1072
lhand -23.9995 -2.58129
lfingers 7.12502
lthumb 2.47781 27.3841
rfemur -67.5507 -16.9394 7.44519
rtibia 61.5398
rfoot -5.06062 -3.93672
rtoes -4.34875
lfemur -40.102 7.39358 -6.97676
ltibia 68.315
lfoot -33.5064 12.9305
ltoes -34.3158
720
root 18.2613 14.0553 0.613452 11.7328 129.034 -6.81378
lowerback 40.9507 2.49213 -2.67054
upperback 9.57331 3.83763 -3.05629
thorax -8.84874 2.71502 -3.6051
lowerneck -34.5456 -7.01459 -6.43962
upperneck 26.7851 -4.6056 -4.14863
head 15.1557 -3.19588 -1.73107
rclavicle -4.6118e-014 5.80451e-014
rhumerus 1.26 63.4388 -99.0373
rradius 43.3558
rwrist -65.05
rhand -23.653 -52.4826
rfingers 7.12502
rthumb 2.81251 -82.4438
lclavicle -4.6118e-014 5.80451e-014
lhumerus -30.2647 -34.9959 86.7895
lradius 70.1671
lwrist 76.6816
lhand -22.809 -3.78632
lfingers 7.12502
lthumb 3.62754 26.1626
rfemur -68.8147 -17.4509 8.14384
rtibia 63.9382
rfoot -6.384 -3.45721
rtoes -5.32586
lfemur -40.1553 7.59786 -6.5152
ltibia 68.7316
lfoot -33.6485 12.7515
ltoes -34.2984
721
root 18.4536 14.0019 0.691632 11.4019 129.166 -7.41135
lowerback 41.6375 2.41288 -2.55518
upperback 9.70974 3.84986 -2.82352
thorax -8.91298 2.73719 -3.44733
lowerneck -34.7926 -6.33083 -6.37669
upperneck 27.3596 -3.31489 -4.82287
head 15.4596 -2.75062 -1.76201
rclavicle -8.74653e-014 -3.57812e-014
rhumerus 3.19495 64.6847 -96.8543
rradius 43.5731
rwrist -66.0903
rhand -24.1857 -53.2365
rfingers 7.12502
rthumb 2.29801 -83.2039
lclavicle -8.74653e-014 -3.57812e-014
lhumerus -29.8021 -34.2715 86.8616
lradius 69.6774
lwrist 76.0784
lhand -21.857 -4.94683
lfingers 7.12502
lthumb 4.54683 24.9844
rfemur -69.9931 -17.6882 8.47225
rtibia 65.9552
rfoot -7.68106 -3.03112
rtoes -3.65215
lfemur -39.9802 7.80912 -6.24616
ltibia 68.896
lfoot -33.6437 13.2878
ltoes -35.2787
722
root 18.6508 13.9541 0.760954 11.2112 129.392 -8.10617
lowerback 41.9022 2.23024 -2.26891
upperback 9.9482 3.81582 -2.75867
thorax -8.72036 2.74697 -3.51094
lowerneck -34.9665 -5.72798 -6.15074
upperneck 27.6764 -2.31695 -5.33994
head 15.6387 -2.3899 -1.80663
rclavicle 7.95139e-015 4.25399e-014
rhumerus 5.50421 65.4511 -94.5122
rradius 43.6045
rwrist -66.5631
rhand -24.1432 -53.7666
rfingers 7.12502
rthumb 2.3391 -83.7335
lclavicle 7.95139e-015 4.25399e-014
lhumerus -29.313 -33.6012 86.8034
lradius 69.2609
lwrist 75.1687
lhand -20.4363 -6.23927
lfingers 7.12502
lthumb 5.91856 23.6581
rfemur -71.1354 -18.2219 8.91835
rtibia 67.7611
rfoot -8.95259 -2.44572
rtoes -2.71504
lfemur -39.8878 7.72423 -6.05632
ltibia 68.8208
lfoot -33.7871 13.5952
ltoes -35.3362
723
root 18.8464 13.9085 0.830427 11.5975 129.602 -8.40592
lowerback 41.9091 2.00602 -1.66552
upperback 10.1015 3.8192 -2.81173
thorax -8.53071 2.76277 -3.87099
lowerneck -35.0711 -5.19689 -5.6189
upperneck 28.0193 -1.58613 -5.88775
head 15.8161 -2.11433 -1.97436
rclavicle -9.46215e-014 1.74135e-013
rhumerus 7.64214 66.1153 -92.4766
rradius 43.4896
rwrist -67.0104
rhand -24.3758 -54.0699
rfingers 7.12502
rthumb 2.11443 -84.0391
lclavicle -9.46215e-014 1.74135e-013
lhumerus -29.0836 -33.2885 86.6936
lradius 69.0683
lwrist 73.9514
lhand -19.0537 -7.51318
lfingers 7.12502
lthumb 7.25328 22.3425
rfemur -72.4317 -18.5761 9.72209
rtibia 69.3588
rfoot -10.0241 -2.07636
rtoes -2.16105
lfemur -39.9527 7.58269 -5.59
ltibia 68.585
lfoot -33.9853 13.754
ltoes -34.7778
724
root 19.0523 13.8781 0.905745 11.8193 129.66 -8.45289
lowerback 42.4841 1.93995 -1.28954
upperback 10.1898 3.93265 -2.7796
thorax -8.58535 2.83096 -4.09932
lowerneck -35.2896 -4.64669 -4.94776
upperneck 28.4956 -0.811518 -6.59143
head 16.0924 -1.83208 -2.23366
rclavicle 4.13472e-014 -1.51076e-014
rhumerus 9.75812 67.1375 -90.3052
rradius 43.4832
rwrist -67.7732
rhand -24.0765 -53.4753
rfingers 7.12502
rthumb 2.40348 -83.4415
lclavicle 4.13472e-014 -1.51076e-014
lhumerus -29.0359 -33.027 86.6467
lradius 69.409
lwrist 73.5683
lhand -19.3529 -7.85742
lfingers 7.12502
lthumb 6.96453 22.008
rfemur -73.1543 -18.457 10.5319
rtibia 70.8159
rfoot -11.1245 -1.94105
rtoes -1.4587
lfemur -39.4019 7.38556 -4.92754
ltibia 68.1409
lfoot -34.2434 15.126
ltoes -34.9463
725
root 19.236 13.8414 0.973509 12.3295 129.616 -8.7267
lowerback 42.4912 1.87525 -0.990324
upperback 10.2716 3.98757 -2.78805
thorax -8.48252 2.86014 -4.27969
lowerneck -35.491 -4.13634 -4.34338
upperneck 28.7183 -0.0296486 -7.40121
head 16.2654 -1.56626 -2.51977
rclavicle -3.18055e-015 3.65764e-014
rhumerus 11.8363 68.2215 -87.9031
rradius 43.798
rwrist -68.5974
rhand -25.6683 -55.4701
rfingers 7.12502
rthumb 0.866106 -85.448
lclavicle -3.18055e-015 3.65764e-014
lhumerus -29.02 -32.604 86.6495
lradius 69.854
lwrist 73.3416
lhand -20.224 -7.55371
lfingers 7.12502
lthumb 6.12359 22.3378
rfemur -74.5316 -18.4367 11.3109
rtibia 72.1731
rfoot -11.9629 -1.77631
rtoes -0.919855
lfemur -39.5561 7.1402 -4.66334
ltibia 67.7377
lfoot -34.2476 17.298
ltoes -35.2014
726
root 19.4342 13.8155 1.04644 12.8044 129.615 -9.19729
lowerback 42.1981 1.95915 -1.12545
upperback 10.3939 4.05551 -2.7018
thorax -8.26476 2.8921 -4.12345
lowerneck -35.5149 -3.81865 -3.92495
upperneck 28.4465 0.412936 -7.99668
head 16.1624 -1.4205 -2.73474
rclavicle 4.77083e-014 -3.02153e-014
rhumerus 13.473 69.0437 -85.9108
rradius 44.2487
rwrist -69.1206
rhand -26.3296 -56.2872
rfingers 7.12502
rthumb 0.227441 -86.2668
lclavicle 4.77083e-014 -3.02153e-014
lhumerus -28.8913 -32.2031 86.7033
lradius 69.9593
lwrist 72.8619
lhand -20.3447 -6.72131
lfingers 7.12502
lthumb 6.00702 23.1735
rfemur -75.8862 -18.276 11.9084
rtibia 73.4663
rfoot -12.8171 -1.83889
rtoes -0.674077
lfemur -39.7178 6.98546 -4.54458
ltibia 67.1586
lfoot -33.7905 17.6496
ltoes -33.7196
727
root 19.6313 13.7881 1.11442 13.3806 129.445 -9.6722
lowerback 41.6124 2.14285 -1.4251
upperback 10.5204 4.16586 -2.63677
thorax -7.95773 2.93728 -3.90724
lowerneck -35.4971 -3.68233 -3.78788
upperneck 27.9465 0.566642 -8.23749
head 15.9304 -1.36946 -2.8029
rclavicle -6.20208e-014 1.20066e-013
rhumerus 14.8247 69.9289 -84.0014
rradius 44.6993
rwrist -69.7555
rhand -35.3822 -65.5757
rfingers 7.12502
rthumb -8.5136 -264.616
lclavicle -6.20208e-014 1.20066e-013
lhumerus -28.7955 -32.0389 86.7472
lradius 69.8829
lwrist 72.3743
lhand -19.1675 -6.61099
lfingers 7.12502
lthumb 7.14348 23.2485
rfemur -77.2811 -17.8381 12.4114
rtibia 74.6701
rfoot -13.5818 -2.04114
rtoes -0.522263
lfemur -39.8393 6.89668 -4.39144
ltibia 66.5272
lfoot -34.1173 20.1813
ltoes -35.424
728
root 19.8188 13.7877 1.18084 12.9593 129.968 -10.2837
lowerback 42.5236 1.85503 -1.22855
upperback 10.5401 3.94425 -2.6129
thorax -8.20884 2.85768 -3.93674
lowerneck -35.5258 -3.68266 -3.87646
upperneck 27.5539 0.568501 -8.23231
head 15.7519 -1.3715 -2.76828
rclavicle 5.88403e-014 1.59028e-015
rhumerus 14.5346 69.7715 -83.9861
rradius 45.1612
rwrist -69.6766
rhand -27.0073 -56.6768
rfingers 7.12502
rthumb -0.427137 -86.6561
lclavicle 5.88403e-014 1.59028e-015
lhumerus -28.8252 -31.9883 86.7754
lradius 69.8438
lwrist 72.272
lhand -18.5428 -7.9131
lfingers 7.12502
lthumb 7.74645 21.925
rfemur -77.2191 -17.8755 12.487
rtibia 75.6905
rfoot -14.6353 -2.30968
rtoes -0.50654
lfemur -39.0883 5.73125 -4.1201
ltibia 65.5964
lfoot -34.5598 21.3048
ltoes -36.1579
